<?xml version="1.0" encoding="utf-8"?>
<!-- Generator: Adobe Illustrator 24.0.0, SVG Export Plug-In . SVG Version: 6.00 Build 0)  -->
<svg version="1.1" id="Layer_1" xmlns="http://www.w3.org/2000/svg" xmlns:xlink="http://www.w3.org/1999/xlink" x="0px" y="0px"
	 viewBox="0 0 1000 1000" style="enable-background:new 0 0 1000 1000;" xml:space="preserve">
<rect x="116.45" y="486.04" style="fill:#FFFFFF;" width="792.49" height="423.75"/>
<g>
	<path style="fill:#1AA92D;" d="M319.67,708.35c0.05,0.7-0.31,1.05-1.09,1.05c-0.5,0-1.92-0.29-4.28-0.86
		c-2.36-0.57-3.81-0.96-4.36-1.17c-5.44,2.13-10.66,3.2-15.66,3.2c-8.05,0-14.65-2.68-19.8-8.05c-5.1-5.29-7.66-11.97-7.66-20.04
		c0-8.26,2.47-15.1,7.42-20.55c5.1-5.63,11.73-8.44,19.88-8.44c3.96,0,7.68,0.76,11.17,2.27c3.78,1.67,6.74,4.01,8.91,7.03
		c0.44,0.63,0.66,1.07,0.66,1.33c0,0.83-1.17,2.7-3.5,5.61c-2.33,2.9-3.83,4.36-4.51,4.36c-0.16,0-0.76-0.53-1.8-1.6
		c-1.28-1.28-2.58-2.27-3.91-2.97c-1.98-1.07-4.17-1.6-6.56-1.6c-3.91,0-7.01,1.46-9.3,4.38c-2.14,2.68-3.2,6.03-3.2,10.04
		c0,4.24,1.11,7.6,3.32,10.08c2.29,2.55,5.53,3.83,9.73,3.83c2.66,0,5.63-0.66,8.91-1.99c-0.08-0.86-0.31-3.05-0.7-6.56
		c-0.34-2.71-0.51-4.9-0.51-6.56c0-0.49,0.17-0.79,0.51-0.9c0.13-0.05,0.34-0.08,0.63-0.08c0.75,0,1.89,0.07,3.42,0.21
		s2.68,0.21,3.46,0.21c0.83,0,2.08-0.06,3.75-0.18c1.67-0.12,2.92-0.18,3.75-0.18c0.65,0,0.98,0.43,0.98,1.29
		c0,1.25-0.07,3.14-0.21,5.66c-0.14,2.53-0.21,4.41-0.21,5.66c0,3.36,0.25,8.38,0.74,15.08L319.67,708.35z"/>
	<path style="fill:#1AA92D;" d="M362.44,690.38c0,5.94-1.82,10.76-5.45,14.45s-8.41,5.55-14.32,5.55c-5.73,0-10.44-1.82-14.14-5.47
		c-3.7-3.65-5.55-8.33-5.55-14.06c0-6.04,1.77-10.94,5.31-14.71c3.54-3.76,8.33-5.64,14.38-5.64c5.88,0,10.65,1.84,14.3,5.53
		C360.62,679.71,362.44,684.49,362.44,690.38z M349.63,690.38c0-2.06-0.64-3.87-1.91-5.45c-1.28-1.58-2.93-2.36-4.96-2.36
		c-2.06,0-3.75,0.81-5.08,2.42c-1.25,1.51-1.88,3.31-1.88,5.39c0,2.11,0.63,3.92,1.88,5.43c1.33,1.62,3.02,2.42,5.08,2.42
		c2.03,0,3.71-0.81,5.04-2.42C349.02,694.3,349.63,692.49,349.63,690.38z"/>
	<path style="fill:#1AA92D;" d="M381.39,686.08c0,7.11,0.03,12.56,0.08,16.37c0,0.6,0.04,1.63,0.12,3.09
		c0.08,1.33,0.12,2.36,0.12,3.09c0,0.55-0.33,0.87-0.98,0.98c-1.17,0.21-3.28,0.31-6.33,0.31c-3.13,0-5.12-0.11-5.98-0.31
		c-0.57-0.13-0.9-0.48-0.98-1.05c0-0.08,0-0.64,0-1.68c0-2.32,0.03-5.79,0.08-10.41c0.05-4.62,0.08-8.08,0.08-10.37
		c0-10.94,0.01-15.92,0.04-14.96c-0.08-5.76-0.4-10.72-0.98-14.88c-0.05-0.29-0.08-0.51-0.08-0.66c0-0.57,0.34-0.86,1.02-0.86h13.95
		c0.65,0,0.95,0.27,0.9,0.82l-0.04,0.7C381.73,667.49,381.39,677.44,381.39,686.08z"/>
	<path style="fill:#1AA92D;" d="M429.94,654.17c0-0.57-0.1,0.29-0.31,2.58c-0.29,2.89-0.51,6.59-0.66,11.09
		c-0.21,5.1-0.31,10.91-0.31,17.42c0,10.76,0.3,18.41,0.9,22.97c0.05,0.49,0.08,0.81,0.08,0.94c0,0.29-0.2,0.46-0.59,0.51
		c-0.94,0.13-4.39,0.2-10.35,0.2c-1.41,0-2.21-0.27-2.42-0.82c-0.05-0.99-0.1-1.98-0.16-2.97c-0.03-0.21-0.13-0.42-0.31-0.63
		c-0.16,0.08-0.35,0.23-0.59,0.47c-2.81,2.76-6.33,4.14-10.55,4.14c-5.5,0-9.9-1.93-13.2-5.78c-3.15-3.67-4.73-8.31-4.73-13.91
		c0-5.68,1.55-10.35,4.65-14.02c3.28-3.91,7.71-5.86,13.28-5.86c3.93,0,6.99,1.25,9.18,3.75c0.36,0.42,0.63,0.63,0.78,0.63
		c0.23,0,0.35-0.34,0.35-1.02c0-2.01-0.05-5-0.16-8.98c-0.1-3.98-0.16-6.97-0.16-8.95c0-0.76,0.21-1.19,0.63-1.29
		c1.67-0.08,3.96-0.23,6.88-0.47c5.21-0.65,7.51-0.98,6.91-0.98C429.66,653.19,429.94,653.52,429.94,654.17z M415.22,690.07
		c0-2.06-0.72-3.86-2.15-5.41c-1.43-1.55-3.16-2.32-5.2-2.32c-2.14,0-3.83,0.78-5.1,2.32c-1.26,1.55-1.89,3.4-1.89,5.57
		c0,2.11,0.64,3.89,1.91,5.35c1.3,1.56,2.99,2.34,5.08,2.34c2.08,0,3.83-0.78,5.23-2.34S415.22,692.18,415.22,690.07z"/>
	<path style="fill:#1AA92D;" d="M471.51,688.39c0,2.63-0.85,4.13-2.54,4.49c-0.29,0.05-2.98,0.34-8.09,0.86
		c-3.07,0.34-7.66,0.74-13.75,1.21c0.36,1.69,1.47,2.98,3.32,3.87c1.51,0.73,3.23,1.09,5.16,1.09c2.32,0,4.65-0.63,6.99-1.88
		c0.99-0.63,1.98-1.25,2.97-1.88c0.55,0.26,1.46,1.59,2.75,3.98s1.93,3.92,1.93,4.57c0,0.18-0.2,0.48-0.59,0.9
		c-3.18,3.41-8.11,5.12-14.8,5.12c-6.2,0-11.2-1.81-15-5.43c-3.91-3.67-5.86-8.58-5.86-14.73c0-5.99,1.74-10.9,5.23-14.73
		c3.59-3.96,8.36-5.94,14.3-5.94c5,0,9.24,1.82,12.73,5.47C469.76,679.03,471.51,683.36,471.51,688.39z M457.83,686
		c0-1.62-0.57-3.03-1.72-4.26c-1.15-1.22-2.51-1.84-4.1-1.84c-1.64,0-3,0.69-4.06,2.07c-0.99,1.28-1.48,2.77-1.48,4.49
		c0,0.7,0.36,1.05,1.09,1.05c1.93,0,4.92-0.3,8.98-0.9C457.4,686.5,457.83,686.29,457.83,686z"/>
	<path style="fill:#1AA92D;" d="M514.63,708.46c0,0.7-0.37,1.11-1.09,1.21c-0.73,0.1-2.63,0.16-5.7,0.16
		c-3.28,0-5.31-0.08-6.09-0.23c-0.78-0.16-1.17-0.69-1.17-1.6c0-1.22,0.04-3.07,0.12-5.55s0.12-4.34,0.12-5.59
		c0-0.96-0.03-2.4-0.08-4.32c-0.05-1.91-0.08-3.35-0.08-4.32c0-3.57-1.55-5.35-4.65-5.35c-1.02,0-2.2,0.44-3.55,1.33
		c-1.46,0.99-2.19,1.97-2.19,2.93v21.09c0,0.86-0.4,1.34-1.21,1.45c-0.91,0.1-2.77,0.16-5.59,0.16c-3.05,0-5.03-0.08-5.94-0.23
		c-0.81-0.13-1.21-0.56-1.21-1.29c0-2.03,0.01-5.09,0.04-9.18c0.03-4.09,0.04-7.16,0.04-9.22c0-6.48-0.51-11.58-1.52-15.27
		c-0.05-0.23-0.08-0.43-0.08-0.59c0-0.42,0.2-0.7,0.59-0.86c1.64-0.18,3.83-0.47,6.56-0.86c4.14-0.81,6.47-1.21,6.99-1.21
		c0.29,0,0.51,0.88,0.66,2.64s0.38,2.64,0.66,2.64c-0.29,0,1.11-0.9,4.2-2.71s5.79-2.71,8.11-2.71c3.31,0,6.07,0.78,8.28,2.34
		c2.47,1.8,3.71,4.3,3.71,7.5v12.46c0,1.69,0.01,4.22,0.04,7.6C514.62,704.24,514.63,706.77,514.63,708.46z"/>
	<path style="fill:#1AA92D;" d="M580.06,699.44c0,7.42-1.56,12.75-4.69,15.98c-3.23,3.31-8.59,4.96-16.09,4.96
		c-2.19,0-5.17-0.35-8.95-1.05c-4.82-0.89-7.23-1.93-7.23-3.13c0-0.5,0.56-3.05,1.68-7.66c0.18-0.73,0.47-1.09,0.86-1.09
		c0.13,0.03,0.27,0.08,0.43,0.16c4.01,1.98,7.72,2.97,11.13,2.97c1.88,0,3.74-0.47,5.59-1.41c2.24-1.12,3.36-2.53,3.36-4.22v-2.62
		c-2.66,2.5-6.07,3.75-10.23,3.75c-4.9,0-8.92-1.76-12.07-5.27c-3.05-3.38-4.57-7.55-4.57-12.5c0-4.97,1.46-9.1,4.38-12.38
		c3.05-3.41,7.03-5.12,11.95-5.12c3.93,0,6.94,1.41,9.02,4.22c0.42,0.57,0.7,0.86,0.86,0.86c0.23,0,0.35-0.47,0.35-1.41
		c0-2.08,0.23-3.13,0.7-3.13c0.42,0,2.67,0.21,6.76,0.64c4.09,0.43,6.21,0.67,6.37,0.72c0.44,0.16,0.66,0.49,0.66,1.02
		c0,1.8-0.06,4.48-0.18,8.05s-0.18,6.25-0.18,8.05c0,1.07,0.01,2.67,0.04,4.8C580.05,696.77,580.06,698.37,580.06,699.44z
		 M566.55,688.62c0-1.9-0.63-3.55-1.89-4.94c-1.26-1.39-2.85-2.09-4.75-2.09c-1.9,0-3.48,0.71-4.75,2.13
		c-1.26,1.42-1.89,3.08-1.89,4.98s0.64,3.54,1.93,4.92s2.86,2.07,4.71,2.07c1.9,0,3.48-0.7,4.75-2.11
		C565.91,692.18,566.55,690.52,566.55,688.62z"/>
	<path style="fill:#1AA92D;" d="M612.72,685.26c0,1.02-0.56,1.52-1.68,1.52c-0.5,0-1.22-0.03-2.17-0.1c-0.95-0.06-1.66-0.1-2.13-0.1
		c-2.16,0-3.63,0.34-4.41,1.02s-1.17,2.04-1.17,4.1c0,1.12,0.02,2.82,0.06,5.1s0.06,3.98,0.06,5.1c0,0.76,0.05,1.88,0.16,3.38
		c0.1,1.5,0.16,2.61,0.16,3.34c0,0.63-0.43,0.98-1.29,1.05c-1.25,0.1-3.16,0.16-5.74,0.16c-2.47,0-4.45-0.08-5.94-0.23
		c-0.86-0.1-1.29-0.53-1.29-1.29c0-2.08,0.01-5.2,0.04-9.36c0.03-4.15,0.04-7.27,0.04-9.36c0-6.12-0.56-11.16-1.68-15.12
		c-0.05-0.23-0.08-0.43-0.08-0.59c0-0.39,0.2-0.65,0.59-0.78c1.43-0.16,3.53-0.44,6.29-0.86c4.11-0.81,6.24-1.21,6.37-1.21
		c0.47,0,0.77,0.82,0.9,2.46c0.13,1.64,0.36,2.46,0.7,2.46c-0.37,0,0.7-0.68,3.2-2.05s4.91-2.05,7.23-2.05
		c1.46,0,2.19,0.31,2.19,0.94c0,0.76-0.08,1.82-0.23,3.2c-0.16,1.48-0.25,2.55-0.27,3.2c0,0.76,0.01,1.76,0.04,3.01
		C612.69,683.75,612.72,684.77,612.72,685.26z"/>
	<path style="fill:#1AA92D;" d="M653.07,688.39c0,2.63-0.85,4.13-2.54,4.49c-0.29,0.05-2.98,0.34-8.09,0.86
		c-3.07,0.34-7.66,0.74-13.75,1.21c0.36,1.69,1.47,2.98,3.32,3.87c1.51,0.73,3.23,1.09,5.16,1.09c2.32,0,4.65-0.63,6.99-1.88
		c0.99-0.63,1.98-1.25,2.97-1.88c0.55,0.26,1.46,1.59,2.75,3.98s1.93,3.92,1.93,4.57c0,0.18-0.2,0.48-0.59,0.9
		c-3.18,3.41-8.11,5.12-14.8,5.12c-6.2,0-11.2-1.81-15-5.43c-3.91-3.67-5.86-8.58-5.86-14.73c0-5.99,1.74-10.9,5.23-14.73
		c3.59-3.96,8.36-5.94,14.3-5.94c5,0,9.24,1.82,12.73,5.47C651.32,679.03,653.07,683.36,653.07,688.39z M639.4,686
		c0-1.62-0.57-3.03-1.72-4.26c-1.15-1.22-2.51-1.84-4.1-1.84c-1.64,0-3,0.69-4.06,2.07c-0.99,1.28-1.48,2.77-1.48,4.49
		c0,0.7,0.36,1.05,1.09,1.05c1.93,0,4.92-0.3,8.98-0.9C638.97,686.5,639.4,686.29,639.4,686z"/>
	<path style="fill:#1AA92D;" d="M693.15,688.39c0,2.63-0.85,4.13-2.54,4.49c-0.29,0.05-2.98,0.34-8.09,0.86
		c-3.07,0.34-7.66,0.74-13.75,1.21c0.36,1.69,1.47,2.98,3.32,3.87c1.51,0.73,3.23,1.09,5.16,1.09c2.32,0,4.65-0.63,6.99-1.88
		c0.99-0.63,1.98-1.25,2.97-1.88c0.55,0.26,1.46,1.59,2.75,3.98s1.93,3.92,1.93,4.57c0,0.18-0.2,0.48-0.59,0.9
		c-3.18,3.41-8.11,5.12-14.8,5.12c-6.2,0-11.2-1.81-15-5.43c-3.91-3.67-5.86-8.58-5.86-14.73c0-5.99,1.74-10.9,5.23-14.73
		c3.59-3.96,8.36-5.94,14.3-5.94c5,0,9.24,1.82,12.73,5.47C691.4,679.03,693.15,683.36,693.15,688.39z M679.48,686
		c0-1.62-0.57-3.03-1.72-4.26c-1.15-1.22-2.51-1.84-4.1-1.84c-1.64,0-3,0.69-4.06,2.07c-0.99,1.28-1.48,2.77-1.48,4.49
		c0,0.7,0.36,1.05,1.09,1.05c1.93,0,4.92-0.3,8.98-0.9C679.05,686.5,679.48,686.29,679.48,686z"/>
	<path style="fill:#1AA92D;" d="M736.27,708.46c0,0.7-0.37,1.11-1.09,1.21c-0.73,0.1-2.63,0.16-5.7,0.16
		c-3.28,0-5.31-0.08-6.09-0.23s-1.17-0.69-1.17-1.6c0-1.22,0.04-3.07,0.12-5.55s0.12-4.34,0.12-5.59c0-0.96-0.03-2.4-0.08-4.32
		c-0.05-1.91-0.08-3.35-0.08-4.32c0-3.57-1.55-5.35-4.65-5.35c-1.02,0-2.2,0.44-3.55,1.33c-1.46,0.99-2.19,1.97-2.19,2.93v21.09
		c0,0.86-0.4,1.34-1.21,1.45c-0.91,0.1-2.77,0.16-5.59,0.16c-3.05,0-5.03-0.08-5.94-0.23c-0.81-0.13-1.21-0.56-1.21-1.29
		c0-2.03,0.01-5.09,0.04-9.18c0.03-4.09,0.04-7.16,0.04-9.22c0-6.48-0.51-11.58-1.52-15.27c-0.05-0.23-0.08-0.43-0.08-0.59
		c0-0.42,0.2-0.7,0.59-0.86c1.64-0.18,3.83-0.47,6.56-0.86c4.14-0.81,6.47-1.21,6.99-1.21c0.29,0,0.51,0.88,0.66,2.64
		s0.38,2.64,0.66,2.64c-0.29,0,1.11-0.9,4.2-2.71s5.79-2.71,8.11-2.71c3.31,0,6.07,0.78,8.28,2.34c2.47,1.8,3.71,4.3,3.71,7.5v12.46
		c0,1.69,0.01,4.22,0.04,7.6C736.26,704.24,736.27,706.77,736.27,708.46z"/>
</g>
<g style="display:none;">
	<path style="display:inline;fill:#1AA92D;" d="M332.59,716.56v28.52h-5.7c-0.41-2-1-4.05-1.78-6.13c-3.8,4.64-8.65,6.95-14.54,6.95
		c-6.96,0-12.37-2.49-16.24-7.46c-3.87-4.97-5.8-11.41-5.8-19.3c0-8.49,2.06-15.31,6.19-20.47c4.13-5.16,9.73-7.73,16.82-7.73
		c5.94,0,10.73,1.67,14.38,5c3.65,3.33,5.87,7.77,6.68,13.32l-11.88,1.56c-0.96-6.46-4.02-9.69-9.18-9.69
		c-3.39,0-5.94,1.53-7.68,4.59c-1.73,3.06-2.6,7.43-2.6,13.11c0,5.47,0.94,9.65,2.81,12.54s4.54,4.34,8.01,4.34
		c2.24,0,4.24-0.73,6-2.19c1.76-1.46,2.64-3.79,2.64-6.99h-10.04v-9.96H332.59z"/>
	<path style="display:inline;fill:#1AA92D;" d="M358.23,704.8c6.01,0,10.7,1.97,14.07,5.9c3.37,3.93,5.05,8.85,5.05,14.77
		c0,5.83-1.75,10.7-5.25,14.59c-3.5,3.89-8.15,5.84-13.95,5.84c-5.62,0-10.11-1.93-13.48-5.78c-3.37-3.85-5.05-8.8-5.05-14.84
		c0-4.19,0.76-7.75,2.28-10.68c1.52-2.93,3.61-5.29,6.26-7.09S354.17,704.8,358.23,704.8z M358.55,712.42
		c-2.21,0-3.87,0.85-4.99,2.56c-1.12,1.71-1.67,5.1-1.67,10.18c0,4.66,0.53,8.01,1.6,10.04s2.73,3.05,4.99,3.05
		c1.97,0,3.57-0.87,4.79-2.6c1.22-1.73,1.83-5.03,1.83-9.9c0-5.18-0.54-8.7-1.62-10.55C362.39,713.34,360.75,712.42,358.55,712.42z"
		/>
	<path style="display:inline;fill:#1AA92D;" d="M384.7,745.07v-53.32h11.64v53.32H384.7z"/>
	<path style="display:inline;fill:#1AA92D;" d="M439.46,691.75v53.32h-10.74v-6.17c-2.66,4.66-6.29,6.99-10.88,6.99
		c-4.36,0-7.79-1.78-10.31-5.33s-3.77-8.48-3.77-14.79c0-6.56,1.26-11.7,3.78-15.41c2.52-3.71,6.16-5.57,10.94-5.57
		c4.2,0,7.43,1.65,9.7,4.96v-18.01H439.46z M428.17,722.14c0-6.2-1.88-9.3-5.64-9.3c-4.49,0-6.74,4.38-6.74,13.13
		c0,7.79,2.1,11.68,6.31,11.68c1.62,0,3.04-0.7,4.25-2.11c1.21-1.41,1.82-3.41,1.82-6.02V722.14z"/>
	<path style="display:inline;fill:#1AA92D;" d="M484.5,727.3h-25.39c-0.03,0.7-0.04,1.32-0.04,1.84c0,2.81,0.75,4.94,2.25,6.37
		c1.5,1.43,3.29,2.15,5.37,2.15c3.88,0,6.21-2.07,6.99-6.21l10.55,0.78c-2.94,9.12-8.92,13.67-17.93,13.67
		c-3.93,0-7.27-0.79-10.02-2.36c-2.75-1.58-5.01-3.87-6.8-6.89c-1.78-3.02-2.68-6.64-2.68-10.86c0-6.28,1.79-11.34,5.37-15.2
		c3.58-3.85,8.18-5.78,13.81-5.78c5.08,0,9.43,1.79,13.07,5.37C482.69,713.75,484.5,719.46,484.5,727.3z M459.07,720.54h14.02
		c-0.37-5.42-2.59-8.13-6.68-8.13C462.04,712.42,459.59,715.13,459.07,720.54z"/>
	<path style="display:inline;fill:#1AA92D;" d="M526.14,745.07H514.5v-22.15c0-2.68-0.1-4.52-0.31-5.51
		c-0.21-0.99-0.72-1.83-1.52-2.52c-0.81-0.69-1.82-1.04-3.05-1.04c-4.09,0-6.13,3.02-6.13,9.06v22.15h-11.64v-39.45h10.82v6.68
		c1.8-3.18,3.57-5.22,5.31-6.13c1.74-0.91,3.63-1.37,5.66-1.37c3.75,0,6.77,1.01,9.06,3.03c2.29,2.02,3.44,5.98,3.44,11.89V745.07z"
		/>
	<path style="display:inline;fill:#1AA92D;" d="M595.17,706.52c-1.22-0.26-2.25-0.39-3.09-0.39c-2.58,0-4.09,1.15-4.53,3.44
		c2.11,2.21,3.16,4.71,3.16,7.5c0,3.72-1.56,6.69-4.67,8.91c-3.11,2.21-7.6,3.32-13.46,3.32c-2.08,0-4.12-0.2-6.09-0.59
		c-1.33,0.78-1.99,1.79-1.99,3.01c0,1.35,0.56,2.25,1.68,2.7c1.12,0.44,3.81,0.77,8.09,0.98c6.07,0.31,10.25,0.69,12.54,1.13
		c2.29,0.44,4.22,1.51,5.78,3.2c1.56,1.69,2.34,3.8,2.34,6.33c0,3.62-1.67,6.68-5.02,9.18c-3.35,2.5-9.28,3.75-17.79,3.75
		c-8,0-13.39-0.87-16.17-2.6c-2.79-1.73-4.18-3.93-4.18-6.59c0-3.52,2.25-5.89,6.76-7.12c-3.33-1.67-5-4.01-5-7.03
		c0-3.78,2.63-6.72,7.89-8.83c-4.66-1.92-6.99-5.14-6.99-9.64c0-3.67,1.61-6.65,4.82-8.94c3.22-2.29,7.66-3.43,13.34-3.43
		c3.59,0,7.07,0.57,10.43,1.72c0.23-2.24,0.89-4.08,1.97-5.53c1.08-1.45,3.38-2.17,6.89-2.17c1.15,0,2.24,0.1,3.28,0.31V706.52z
		 M564.74,744.8c-0.47,0-1.06,0.31-1.78,0.94c-0.72,0.63-1.07,1.38-1.07,2.27c0,1.77,1.13,2.88,3.4,3.32
		c2.27,0.44,4.92,0.66,7.97,0.66c3.98,0,6.78-0.3,8.38-0.9c1.6-0.6,2.4-1.56,2.4-2.89c0-1.02-0.67-1.8-2.01-2.34
		c-1.34-0.55-4.92-0.82-10.72-0.82l-2.34,0.04c-1.43,0-2.4-0.04-2.89-0.12C565.52,744.85,565.08,744.8,564.74,744.8z M572.49,711.09
		c-2,0-3.56,0.54-4.69,1.62c-1.13,1.08-1.69,2.51-1.69,4.28c0,4.01,2.14,6.02,6.43,6.02c2.08,0,3.71-0.59,4.89-1.76
		s1.77-2.59,1.77-4.26c0-1.56-0.56-2.94-1.67-4.12C576.4,711.68,574.72,711.09,572.49,711.09z"/>
	<path style="display:inline;fill:#1AA92D;" d="M611.3,745.07h-11.29v-39.45h10.66v7.34c1.64-5.47,4.48-8.2,8.52-8.2
		c0.57,0,1.28,0.04,2.11,0.12v11.48c-2.37,0-4.21,0.37-5.53,1.09c-1.32,0.73-2.39,2.04-3.22,3.93c-0.83,1.89-1.25,4.43-1.25,7.64
		V745.07z"/>
	<path style="display:inline;fill:#1AA92D;" d="M663.21,727.3h-25.39c-0.03,0.7-0.04,1.32-0.04,1.84c0,2.81,0.75,4.94,2.25,6.37
		c1.5,1.43,3.29,2.15,5.37,2.15c3.88,0,6.21-2.07,6.99-6.21l10.55,0.78c-2.94,9.12-8.92,13.67-17.93,13.67
		c-3.93,0-7.27-0.79-10.02-2.36c-2.75-1.58-5.01-3.87-6.8-6.89c-1.78-3.02-2.68-6.64-2.68-10.86c0-6.28,1.79-11.34,5.37-15.2
		c3.58-3.85,8.18-5.78,13.81-5.78c5.08,0,9.43,1.79,13.07,5.37C661.4,713.75,663.21,719.46,663.21,727.3z M637.78,720.54h14.02
		c-0.37-5.42-2.59-8.13-6.68-8.13C640.75,712.42,638.3,715.13,637.78,720.54z"/>
	<path style="display:inline;fill:#1AA92D;" d="M705.99,727.3H680.6c-0.03,0.7-0.04,1.32-0.04,1.84c0,2.81,0.75,4.94,2.25,6.37
		c1.5,1.43,3.29,2.15,5.37,2.15c3.88,0,6.21-2.07,6.99-6.21l10.55,0.78c-2.94,9.12-8.92,13.67-17.93,13.67
		c-3.93,0-7.27-0.79-10.02-2.36c-2.75-1.58-5.01-3.87-6.8-6.89c-1.78-3.02-2.68-6.64-2.68-10.86c0-6.28,1.79-11.34,5.37-15.2
		c3.58-3.85,8.18-5.78,13.81-5.78c5.08,0,9.43,1.79,13.07,5.37C704.17,713.75,705.99,719.46,705.99,727.3z M680.56,720.54h14.02
		c-0.37-5.42-2.59-8.13-6.68-8.13C683.53,712.42,681.08,715.13,680.56,720.54z"/>
	<path style="display:inline;fill:#1AA92D;" d="M747.63,745.07h-11.64v-22.15c0-2.68-0.1-4.52-0.31-5.51
		c-0.21-0.99-0.72-1.83-1.52-2.52c-0.81-0.69-1.82-1.04-3.05-1.04c-4.09,0-6.13,3.02-6.13,9.06v22.15h-11.64v-39.45h10.82v6.68
		c1.8-3.18,3.57-5.22,5.31-6.13c1.74-0.91,3.63-1.37,5.66-1.37c3.75,0,6.77,1.01,9.06,3.03c2.29,2.02,3.44,5.98,3.44,11.89V745.07z"
		/>
</g>
<g style="display:none;">
	<path style="display:inline;fill:#1AA92D;" d="M294.39,716.43c3.59,0.05,7.03,0.08,10.31,0.08c4.3,0,7.88-0.03,10.74-0.08
		c-0.68,8.72-1.17,18.41-1.46,29.06c-4.32,0.86-8.23,1.46-11.72,1.82s-6.46,0.53-8.9,0.53c-4.58,0-8.83-0.48-12.75-1.45
		s-7.23-2.53-9.94-4.69c-2.71-2.16-4.77-5.01-6.19-8.54c-1.42-3.53-2.13-7.26-2.13-11.19c0-3.36,0.53-6.6,1.58-9.73
		s2.62-5.99,4.69-8.59c2.07-2.6,4.57-4.77,7.5-6.5c2.93-1.73,6.04-2.92,9.34-3.55c3.29-0.64,6.78-0.96,10.45-0.96
		c5.05,0,10.86,0.68,17.42,2.03c0.03,2.96,0.17,6.06,0.43,9.3c-6.15-2.06-11.71-3.09-16.68-3.09c-3.2,0-6.23,0.46-9.08,1.37
		c-2.85,0.91-5.31,2.32-7.38,4.24s-3.65,4.28-4.73,7.11c-1.08,2.83-1.62,5.75-1.62,8.77c0,3.36,0.62,6.36,1.86,9
		c1.24,2.64,3.31,4.69,6.23,6.15c2.92,1.46,6.26,2.19,10.04,2.19c1.38,0,3.01-0.12,4.88-0.37c1.88-0.25,3.83-0.67,5.86-1.27
		l0.64-13.71l-3.09-0.04c-1.75,0-3.96,0.04-6.65,0.12C294.27,720.95,294.39,718.28,294.39,716.43z"/>
	<path style="display:inline;fill:#1AA92D;" d="M345.28,706.24c2.99,0,5.87,0.45,8.61,1.35c2.75,0.9,5.08,2.23,6.99,3.98
		s3.35,3.91,4.32,6.45c0.96,2.54,1.45,5.21,1.45,8.03c0,2.97-0.51,5.83-1.52,8.59c-1.02,2.76-2.49,5.15-4.41,7.17
		c-1.93,2.02-4.33,3.53-7.21,4.53c-2.88,1-5.94,1.5-9.2,1.5c-3.02,0-5.89-0.45-8.61-1.35c-2.72-0.9-5.05-2.25-6.97-4.04
		c-1.93-1.8-3.39-3.98-4.39-6.56c-1-2.58-1.5-5.27-1.5-8.09c0-2.86,0.46-5.6,1.37-8.2c0.91-2.6,2.34-4.92,4.28-6.95
		c1.94-2.03,4.42-3.61,7.44-4.73C338.93,706.8,342.05,706.24,345.28,706.24z M345.28,714.29c-2.26,0-4.27,0.55-6.05,1.66
		c-1.78,1.11-3.1,2.75-3.97,4.94s-1.3,4.57-1.3,7.15c0,2.27,0.36,4.28,1.07,6.05c0.71,1.77,1.88,3.2,3.5,4.3s3.55,1.64,5.78,1.64
		c2.28,0,4.29-0.57,6.01-1.7c1.73-1.13,3.02-2.8,3.89-5c0.87-2.2,1.3-4.63,1.3-7.29c0-2.16-0.34-4.13-1.01-5.9
		c-0.68-1.77-1.81-3.19-3.41-4.26C349.5,714.82,347.56,714.29,345.28,714.29z"/>
	<path style="display:inline;fill:#1AA92D;" d="M373.37,746.9c0.39-4.4,0.86-12.31,1.42-23.73c0.56-11.42,0.9-21.28,1.03-29.59
		c2.71,0.05,4.64,0.08,5.79,0.08c1.54,0,3.41-0.03,5.63-0.08l-0.93,14.26l-1.36,31.8l-0.16,7.27c-2.14-0.05-3.95-0.08-5.44-0.08
		C378.86,746.82,376.86,746.85,373.37,746.9z"/>
	<path style="display:inline;fill:#1AA92D;" d="M434.94,746.9c-2.16-0.05-3.84-0.08-5.04-0.08c-1.3,0-3.1,0.03-5.39,0.08l0.35-6.8
		c-1.15,1.48-2.13,2.63-2.95,3.44c-0.82,0.81-1.84,1.56-3.05,2.25c-1.21,0.69-2.52,1.2-3.92,1.54c-1.41,0.34-2.86,0.51-4.37,0.51
		c-2.5,0-4.84-0.46-7.03-1.37c-2.19-0.91-4.05-2.19-5.58-3.85c-1.54-1.65-2.67-3.62-3.4-5.9c-0.73-2.28-1.09-4.65-1.09-7.13
		c0-3.41,0.65-6.74,1.95-9.98s3.08-5.87,5.35-7.87c2.26-2,4.83-3.42,7.69-4.26c2.86-0.83,5.93-1.25,9.21-1.25
		c2.37,0,5.05,0.22,8.04,0.66c0.19-3.38,0.29-6.94,0.29-10.66v-2.66c2.45,0.05,4.33,0.08,5.63,0.08c1.69,0,3.6-0.03,5.71-0.08
		c-0.57,6.62-1.11,15.62-1.62,27.01C435.19,731.99,434.94,740.76,434.94,746.9z M425.28,714.32c-1.95-0.52-3.83-0.78-5.63-0.78
		c-2.06,0-4.02,0.29-5.9,0.86c-1.88,0.57-3.54,1.55-4.98,2.93c-1.45,1.38-2.56,3.15-3.34,5.31c-0.78,2.16-1.17,4.25-1.17,6.25
		c0,2.01,0.36,3.84,1.07,5.51c0.72,1.67,1.83,2.98,3.34,3.95c1.51,0.96,3.22,1.45,5.12,1.45c1.43,0,2.73-0.25,3.9-0.76
		s2.24-1.29,3.2-2.34c0.96-1.05,1.78-2.42,2.44-4.08c0.66-1.67,1.14-3.88,1.43-6.64C424.96,723.93,425.13,720.05,425.28,714.32z"/>
	<path style="display:inline;fill:#1AA92D;" d="M480.05,738.04c-0.34,1.54-0.82,4.3-1.45,8.28c-2.81,0.6-5.18,1-7.11,1.21
		c-1.93,0.21-3.87,0.31-5.82,0.31c-3.41,0-6.46-0.34-9.16-1.01s-5.06-1.92-7.09-3.73c-2.03-1.81-3.53-4.03-4.49-6.65
		c-0.96-2.63-1.45-5.39-1.45-8.27c0-3.2,0.56-6.3,1.68-9.31c1.12-3,2.69-5.46,4.71-7.38c2.02-1.91,4.32-3.27,6.89-4.06
		c2.58-0.79,5.27-1.19,8.09-1.19c2.66,0,5.18,0.33,7.58,0.99c2.4,0.66,4.41,1.75,6.04,3.26c1.63,1.51,2.88,3.32,3.75,5.44
		c0.87,2.12,1.31,4.48,1.31,7.08c0,1.22-0.13,2.48-0.39,3.78l-28.63,0.04c-0.05,0.96-0.08,1.73-0.08,2.3c0,1.75,0.3,3.35,0.9,4.8
		c0.6,1.46,1.47,2.7,2.62,3.71c1.15,1.02,2.51,1.76,4.1,2.25c1.59,0.48,3.15,0.72,4.69,0.72c1.8,0,3.74-0.2,5.84-0.59
		C474.66,739.64,477.16,738.97,480.05,738.04z M454.81,722.25l18.28,0.04c0-1.25-0.04-2.17-0.12-2.76c-0.08-0.6-0.25-1.28-0.53-2.04
		c-0.27-0.76-0.64-1.44-1.11-2.02c-0.47-0.58-1.02-1.07-1.64-1.46c-0.63-0.39-1.35-0.69-2.17-0.89c-0.82-0.21-1.7-0.31-2.64-0.31
		c-1.09,0-2.16,0.17-3.18,0.51c-1.03,0.34-1.97,0.83-2.83,1.48s-1.56,1.37-2.09,2.18c-0.53,0.8-0.93,1.58-1.19,2.32
		C455.34,720.02,455.07,721.01,454.81,722.25z"/>
	<path style="display:inline;fill:#1AA92D;" d="M489.15,746.9c0.6-5.91,1.09-12.55,1.49-19.92c0.4-7.37,0.63-13.97,0.68-19.8
		c2.4,0.05,4.31,0.08,5.75,0.08c1.69,0,3.49-0.03,5.4-0.08l-0.43,6.64c0.81-1.15,1.52-2.06,2.13-2.73c0.61-0.68,1.39-1.34,2.34-1.99
		c0.95-0.65,1.97-1.17,3.05-1.56c1.08-0.39,2.29-0.7,3.63-0.94s2.74-0.35,4.2-0.35c2.32,0,4.54,0.29,6.66,0.88
		c2.12,0.59,3.83,1.52,5.14,2.79c1.3,1.28,2.16,2.67,2.58,4.18c0.42,1.51,0.63,3.11,0.63,4.8c0,0.7-0.04,1.82-0.12,3.36l-0.81,17.07
		c-0.1,2.37-0.17,4.9-0.19,7.58c-2.06-0.05-3.82-0.08-5.28-0.08c-1.98,0-3.98,0.03-5.99,0.08c0.21-2.27,0.47-6.22,0.78-11.86
		c0.31-5.64,0.47-9.37,0.47-11.19c0-2.06-0.33-3.71-0.98-4.96c-0.65-1.25-1.66-2.2-3.02-2.85c-1.37-0.65-2.84-0.98-4.43-0.98
		c-1.56,0-3.02,0.3-4.37,0.9c-1.35,0.6-2.52,1.47-3.51,2.62c-1.04,1.17-1.85,2.62-2.42,4.34c-0.6,1.82-1.04,4.83-1.33,9.02
		c-0.26,3.72-0.47,8.71-0.63,14.96c-2.01-0.05-3.82-0.08-5.44-0.08C493.49,746.82,491.5,746.85,489.15,746.9z"/>
	<path style="display:inline;fill:#1AA92D;" d="M563.45,755.14c5.86,1.93,10.94,2.89,15.23,2.89c1.64,0,3.19-0.2,4.65-0.6
		c1.46-0.4,2.68-0.99,3.67-1.75c0.99-0.77,1.76-1.81,2.3-3.12c0.55-1.31,0.91-2.83,1.09-4.56c0.18-1.73,0.33-4.35,0.43-7.85
		c-1.02,1.38-1.93,2.46-2.73,3.22c-0.81,0.77-1.78,1.46-2.91,2.07c-1.13,0.61-2.46,1.11-3.96,1.48c-1.51,0.38-3.1,0.57-4.77,0.57
		c-2.29,0-4.47-0.36-6.52-1.07c-2.06-0.72-3.89-1.84-5.49-3.38c-1.6-1.54-2.82-3.47-3.65-5.8c-0.83-2.33-1.25-4.76-1.25-7.29
		c0-3.62,0.68-7.04,2.05-10.27c1.37-3.23,3.37-5.88,6.02-7.97c2.64-2.08,5.47-3.52,8.48-4.3s6.35-1.17,10.02-1.17
		c2.03,0,4.34,0.12,6.91,0.37c2.58,0.25,5.99,0.75,10.23,1.5l-0.9,12.37l-0.82,15.5L601.22,750c-0.08,1.59-0.27,3.12-0.59,4.59
		c-0.31,1.47-0.81,2.8-1.48,3.98c-0.68,1.18-1.54,2.23-2.58,3.14c-1.04,0.91-2.22,1.65-3.54,2.21c-1.32,0.56-2.94,1.02-4.88,1.39
		c-1.94,0.36-4.02,0.55-6.23,0.55c-2.37,0-5.07-0.16-8.09-0.47s-6.32-0.9-9.88-1.76L563.45,755.14z M591.97,714.99
		c-2.27-0.47-4.36-0.7-6.29-0.7c-3.39,0-6.19,0.62-8.4,1.86c-2.21,1.24-3.92,3.04-5.12,5.42c-1.2,2.37-1.8,4.89-1.8,7.55
		c0,1.96,0.36,3.78,1.09,5.46c0.73,1.68,1.87,2.95,3.42,3.81s3.26,1.29,5.14,1.29c1.33,0,2.57-0.21,3.73-0.63
		c1.16-0.42,2.21-1.06,3.15-1.92c0.94-0.86,1.76-1.93,2.48-3.21c0.72-1.28,1.22-2.72,1.52-4.32c0.3-1.6,0.53-3.61,0.68-6.03
		C591.73,721.16,591.86,718.3,591.97,714.99z"/>
	<path style="display:inline;fill:#1AA92D;" d="M611.03,746.9l1.13-18.55l0.31-10.78c0.05-2.21,0.08-4.44,0.08-6.68
		c0-0.39-0.03-1.63-0.08-3.71c2.42,0.05,4.21,0.08,5.35,0.08c1.33,0,3.09-0.03,5.27-0.08l-0.2,5.51c0.99-1.41,1.84-2.45,2.54-3.14
		c0.7-0.69,1.49-1.28,2.36-1.78c0.87-0.49,1.84-0.87,2.91-1.13c1.07-0.26,2.16-0.39,3.28-0.39c1.04,0,2.11,0.13,3.2,0.39
		c0,2.42,0.12,5.5,0.35,9.22c-1.54-0.42-2.93-0.63-4.18-0.63c-1.51,0-2.84,0.23-4,0.68c-1.16,0.46-2.2,1.15-3.13,2.07
		c-0.92,0.92-1.69,2.06-2.29,3.42c-0.5,1.09-0.86,2.51-1.09,4.26c-0.2,1.35-0.37,3.67-0.51,6.95s-0.21,6.51-0.21,9.69
		c0,1.22,0.04,2.76,0.12,4.61c-1.98-0.05-3.79-0.08-5.44-0.08C615.2,746.82,613.27,746.85,611.03,746.9z"/>
	<path style="display:inline;fill:#1AA92D;" d="M677.59,738.04c-0.34,1.54-0.82,4.3-1.45,8.28c-2.81,0.6-5.18,1-7.11,1.21
		c-1.93,0.21-3.87,0.31-5.82,0.31c-3.41,0-6.46-0.34-9.16-1.01s-5.06-1.92-7.09-3.73c-2.03-1.81-3.53-4.03-4.49-6.65
		c-0.96-2.63-1.45-5.39-1.45-8.27c0-3.2,0.56-6.3,1.68-9.31c1.12-3,2.69-5.46,4.71-7.38c2.02-1.91,4.32-3.27,6.89-4.06
		c2.58-0.79,5.27-1.19,8.09-1.19c2.66,0,5.18,0.33,7.58,0.99c2.4,0.66,4.41,1.75,6.04,3.26c1.63,1.51,2.88,3.32,3.75,5.44
		c0.87,2.12,1.31,4.48,1.31,7.08c0,1.22-0.13,2.48-0.39,3.78l-28.63,0.04c-0.05,0.96-0.08,1.73-0.08,2.3c0,1.75,0.3,3.35,0.9,4.8
		c0.6,1.46,1.47,2.7,2.62,3.71c1.15,1.02,2.51,1.76,4.1,2.25c1.59,0.48,3.15,0.72,4.69,0.72c1.8,0,3.74-0.2,5.84-0.59
		C672.2,739.64,674.7,738.97,677.59,738.04z M652.35,722.25l18.28,0.04c0-1.25-0.04-2.17-0.12-2.76c-0.08-0.6-0.25-1.28-0.53-2.04
		c-0.27-0.76-0.64-1.44-1.11-2.02c-0.47-0.58-1.02-1.07-1.64-1.46c-0.63-0.39-1.35-0.69-2.17-0.89c-0.82-0.21-1.7-0.31-2.64-0.31
		c-1.09,0-2.16,0.17-3.18,0.51c-1.03,0.34-1.97,0.83-2.83,1.48s-1.56,1.37-2.09,2.18c-0.53,0.8-0.93,1.58-1.19,2.32
		C652.88,720.02,652.61,721.01,652.35,722.25z"/>
	<path style="display:inline;fill:#1AA92D;" d="M722.43,738.04c-0.34,1.54-0.82,4.3-1.45,8.28c-2.81,0.6-5.18,1-7.11,1.21
		c-1.93,0.21-3.87,0.31-5.82,0.31c-3.41,0-6.46-0.34-9.16-1.01s-5.06-1.92-7.09-3.73c-2.03-1.81-3.53-4.03-4.49-6.65
		c-0.96-2.63-1.45-5.39-1.45-8.27c0-3.2,0.56-6.3,1.68-9.31c1.12-3,2.69-5.46,4.71-7.38c2.02-1.91,4.32-3.27,6.89-4.06
		c2.58-0.79,5.27-1.19,8.09-1.19c2.66,0,5.18,0.33,7.58,0.99c2.4,0.66,4.41,1.75,6.04,3.26c1.63,1.51,2.88,3.32,3.75,5.44
		c0.87,2.12,1.31,4.48,1.31,7.08c0,1.22-0.13,2.48-0.39,3.78l-28.63,0.04c-0.05,0.96-0.08,1.73-0.08,2.3c0,1.75,0.3,3.35,0.9,4.8
		c0.6,1.46,1.47,2.7,2.62,3.71c1.15,1.02,2.51,1.76,4.1,2.25c1.59,0.48,3.15,0.72,4.69,0.72c1.8,0,3.74-0.2,5.84-0.59
		C717.05,739.64,719.54,738.97,722.43,738.04z M697.2,722.25l18.28,0.04c0-1.25-0.04-2.17-0.12-2.76c-0.08-0.6-0.25-1.28-0.53-2.04
		c-0.27-0.76-0.64-1.44-1.11-2.02c-0.47-0.58-1.02-1.07-1.64-1.46c-0.63-0.39-1.35-0.69-2.17-0.89c-0.82-0.21-1.7-0.31-2.64-0.31
		c-1.09,0-2.16,0.17-3.18,0.51c-1.03,0.34-1.97,0.83-2.83,1.48s-1.56,1.37-2.09,2.18c-0.53,0.8-0.93,1.58-1.19,2.32
		C697.72,720.02,697.46,721.01,697.2,722.25z"/>
	<path style="display:inline;fill:#1AA92D;" d="M731.53,746.9c0.59-5.91,1.09-12.55,1.5-19.92c0.4-7.37,0.63-13.97,0.68-19.8
		c2.4,0.05,4.31,0.08,5.75,0.08c1.69,0,3.49-0.03,5.4-0.08l-0.43,6.64c0.81-1.15,1.52-2.06,2.13-2.73c0.61-0.68,1.39-1.34,2.34-1.99
		c0.95-0.65,1.97-1.17,3.05-1.56c1.08-0.39,2.29-0.7,3.63-0.94s2.74-0.35,4.2-0.35c2.32,0,4.54,0.29,6.66,0.88
		c2.12,0.59,3.83,1.52,5.14,2.79c1.3,1.28,2.16,2.67,2.58,4.18c0.42,1.51,0.63,3.11,0.63,4.8c0,0.7-0.04,1.82-0.12,3.36l-0.81,17.07
		c-0.1,2.37-0.17,4.9-0.19,7.58c-2.06-0.05-3.82-0.08-5.28-0.08c-1.98,0-3.98,0.03-5.99,0.08c0.21-2.27,0.47-6.22,0.78-11.86
		c0.31-5.64,0.47-9.37,0.47-11.19c0-2.06-0.33-3.71-0.98-4.96c-0.65-1.25-1.66-2.2-3.03-2.85c-1.37-0.65-2.84-0.98-4.43-0.98
		c-1.56,0-3.02,0.3-4.37,0.9c-1.35,0.6-2.52,1.47-3.51,2.62c-1.04,1.17-1.85,2.62-2.42,4.34c-0.6,1.82-1.04,4.83-1.33,9.02
		c-0.26,3.72-0.47,8.71-0.63,14.96c-2.01-0.05-3.82-0.08-5.44-0.08C735.88,746.82,733.88,746.85,731.53,746.9z"/>
</g>
<g style="display:none;">
	<path style="display:inline;fill:#1AA92D;" d="M274.27,725.96h24.65v30.78c-6.69,2.29-14.05,3.44-22.07,3.44
		c-8.8,0-15.61-2.55-20.41-7.66c-4.8-5.1-7.21-12.38-7.21-21.84c0-9.22,2.63-16.39,7.89-21.52c5.26-5.13,12.63-7.7,22.11-7.7
		c3.59,0,6.99,0.34,10.18,1.02c3.19,0.68,5.97,1.54,8.34,2.58l-4.88,12.11c-4.12-2.03-8.63-3.05-13.55-3.05
		c-4.51,0-7.99,1.46-10.45,4.39s-3.69,7.12-3.69,12.56c0,5.34,1.11,9.41,3.34,12.21c2.23,2.8,5.44,4.2,9.63,4.2
		c2.29,0,4.4-0.22,6.33-0.66v-8.95h-10.2V725.96z"/>
	<path style="display:inline;fill:#1AA92D;" d="M351.92,737.17c0,7.24-1.95,12.88-5.84,16.93c-3.89,4.05-9.34,6.07-16.35,6.07
		c-6.72,0-12.06-2.07-16.04-6.21c-3.97-4.14-5.96-9.74-5.96-16.8c0-7.21,1.95-12.82,5.84-16.82c3.89-4,9.36-6,16.39-6
		c4.35,0,8.19,0.92,11.52,2.77c3.33,1.85,5.9,4.5,7.71,7.95C351.02,728.53,351.92,732.56,351.92,737.17z M323.25,737.17
		c0,3.8,0.51,6.7,1.52,8.69s2.72,2.99,5.12,2.99c2.37,0,4.04-1,5.02-2.99s1.46-4.89,1.46-8.69c0-3.78-0.5-6.63-1.48-8.55
		c-0.99-1.93-2.68-2.89-5.08-2.89c-2.34,0-4.02,0.96-5.04,2.87S323.25,733.36,323.25,737.17z"/>
	<path style="display:inline;fill:#1AA92D;" d="M375.91,759.39h-15.27v-60.78h15.27V759.39z"/>
	<path style="display:inline;fill:#1AA92D;" d="M400.24,760.17c-3.15,0-5.91-0.9-8.26-2.7c-2.36-1.8-4.18-4.44-5.47-7.93
		c-1.29-3.49-1.93-7.56-1.93-12.23c0-7.19,1.45-12.81,4.34-16.88s6.86-6.09,11.91-6.09c2.47,0,4.64,0.5,6.5,1.48
		c1.86,0.99,3.56,2.66,5.1,5h0.31c-0.5-3.46-0.74-6.93-0.74-10.39v-11.84h15.39v60.78h-11.52l-3.28-5.59H412
		C409.37,758.05,405.45,760.17,400.24,760.17z M406.49,748.1c2.45,0,4.17-0.77,5.18-2.3c1-1.54,1.54-3.91,1.62-7.11v-1.21
		c0-3.91-0.56-6.69-1.68-8.34c-1.12-1.65-2.88-2.48-5.27-2.48c-2.01,0-3.56,0.94-4.67,2.83c-1.11,1.89-1.66,4.58-1.66,8.07
		c0,3.44,0.56,6.05,1.68,7.85C402.81,747.21,404.41,748.1,406.49,748.1z"/>
	<path style="display:inline;fill:#1AA92D;" d="M459.31,760.17c-7.37,0-13.09-1.96-17.17-5.88c-4.08-3.92-6.11-9.5-6.11-16.74
		c0-7.47,1.89-13.21,5.66-17.21c3.78-4,9.17-6,16.17-6c6.67,0,11.82,1.74,15.45,5.21s5.45,8.48,5.45,15.02v6.8h-27.3
		c0.1,2.47,1.01,4.41,2.71,5.82c1.71,1.41,4.03,2.11,6.97,2.11c2.68,0,5.15-0.25,7.4-0.76c2.25-0.51,4.69-1.37,7.32-2.6v10.98
		c-2.4,1.22-4.87,2.07-7.42,2.54C465.9,759.94,462.85,760.17,459.31,760.17z M458.41,724.74c-1.8,0-3.3,0.57-4.51,1.7
		s-1.92,2.91-2.13,5.33h13.13c-0.05-2.13-0.66-3.84-1.82-5.12C461.92,725.38,460.36,724.74,458.41,724.74z"/>
	<path style="display:inline;fill:#1AA92D;" d="M515.32,759.39v-24.14c0-2.94-0.42-5.16-1.27-6.66c-0.85-1.5-2.21-2.25-4.08-2.25
		c-2.58,0-4.44,1.03-5.59,3.09c-1.15,2.06-1.72,5.59-1.72,10.59v19.38h-15.27v-44.26h11.52l1.91,5.47h0.9
		c1.3-2.08,3.11-3.65,5.41-4.69c2.3-1.04,4.95-1.56,7.95-1.56c4.9,0,8.7,1.42,11.43,4.26c2.72,2.84,4.08,6.84,4.08,11.99v28.79
		H515.32z"/>
	<path style="display:inline;fill:#1AA92D;" d="M601.5,715.13v7.38l-6.05,2.23c0.83,1.51,1.25,3.27,1.25,5.27
		c0,4.77-1.67,8.46-5.02,11.09c-3.35,2.63-8.34,3.95-14.98,3.95c-1.64,0-2.94-0.1-3.91-0.31c-0.37,0.68-0.55,1.32-0.55,1.91
		c0,0.76,0.61,1.33,1.84,1.74c1.22,0.4,2.83,0.61,4.8,0.61h7.34c9.92,0,14.88,4.18,14.88,12.54c0,5.39-2.3,9.58-6.89,12.58
		c-4.6,2.99-11.05,4.49-19.36,4.49c-6.28,0-11.11-1.05-14.51-3.14c-3.4-2.1-5.1-5.11-5.1-9.04c0-5.29,3.28-8.7,9.84-10.23
		c-1.35-0.57-2.53-1.5-3.54-2.77c-1-1.28-1.5-2.54-1.5-3.79c0-1.38,0.38-2.6,1.13-3.65c0.75-1.05,2.33-2.31,4.73-3.77
		c-2.29-1.02-4.1-2.6-5.41-4.77c-1.32-2.16-1.97-4.79-1.97-7.89c0-4.82,1.64-8.55,4.92-11.21s7.97-3.98,14.06-3.98
		c0.81,0,2.2,0.09,4.18,0.27c1.98,0.18,3.44,0.35,4.38,0.51H601.5z M568.14,764.9c0,1.25,0.68,2.26,2.03,3.03
		c1.35,0.77,3.16,1.15,5.43,1.15c3.7,0,6.66-0.46,8.89-1.39c2.23-0.92,3.34-2.12,3.34-3.57c0-1.17-0.68-2-2.03-2.48
		c-1.35-0.48-3.29-0.72-5.82-0.72H574c-1.64,0-3.03,0.38-4.16,1.15C568.7,762.84,568.14,763.78,568.14,764.9z M572.94,729.63
		c0,4.53,1.58,6.8,4.73,6.8c1.46,0,2.58-0.56,3.38-1.68c0.79-1.12,1.19-2.8,1.19-5.04c0-4.58-1.52-6.88-4.57-6.88
		C574.52,722.83,572.94,725.1,572.94,729.63z"/>
	<path style="display:inline;fill:#1AA92D;" d="M634.93,714.35c1.33,0,2.59,0.1,3.79,0.31l0.86,0.16l-1.37,14.41
		c-1.25-0.31-2.98-0.47-5.2-0.47c-3.33,0-5.76,0.76-7.27,2.29c-1.51,1.52-2.27,3.72-2.27,6.58v21.76h-15.27v-44.26h11.37l2.38,7.07
		h0.74c1.28-2.34,3.05-4.24,5.33-5.68C630.32,715.08,632.61,714.35,634.93,714.35z"/>
	<path style="display:inline;fill:#1AA92D;" d="M667.12,760.17c-7.37,0-13.09-1.96-17.17-5.88c-4.08-3.92-6.11-9.5-6.11-16.74
		c0-7.47,1.89-13.21,5.66-17.21c3.78-4,9.17-6,16.17-6c6.67,0,11.82,1.74,15.45,5.21s5.45,8.48,5.45,15.02v6.8h-27.3
		c0.1,2.47,1.01,4.41,2.71,5.82c1.71,1.41,4.03,2.11,6.97,2.11c2.68,0,5.15-0.25,7.4-0.76c2.25-0.51,4.69-1.37,7.32-2.6v10.98
		c-2.4,1.22-4.87,2.07-7.42,2.54C673.71,759.94,670.66,760.17,667.12,760.17z M666.22,724.74c-1.8,0-3.3,0.57-4.51,1.7
		s-1.92,2.91-2.13,5.33h13.13c-0.05-2.13-0.66-3.84-1.82-5.12C669.73,725.38,668.17,724.74,666.22,724.74z"/>
	<path style="display:inline;fill:#1AA92D;" d="M716.57,760.17c-7.37,0-13.09-1.96-17.17-5.88c-4.08-3.92-6.11-9.5-6.11-16.74
		c0-7.47,1.89-13.21,5.66-17.21c3.78-4,9.17-6,16.17-6c6.67,0,11.82,1.74,15.45,5.21s5.45,8.48,5.45,15.02v6.8h-27.3
		c0.1,2.47,1.01,4.41,2.71,5.82c1.71,1.41,4.03,2.11,6.97,2.11c2.68,0,5.15-0.25,7.4-0.76c2.25-0.51,4.69-1.37,7.32-2.6v10.98
		c-2.4,1.22-4.87,2.07-7.42,2.54C723.16,759.94,720.11,760.17,716.57,760.17z M715.67,724.74c-1.8,0-3.3,0.57-4.51,1.7
		s-1.92,2.91-2.13,5.33h13.13c-0.05-2.13-0.66-3.84-1.82-5.12C719.18,725.38,717.63,724.74,715.67,724.74z"/>
	<path style="display:inline;fill:#1AA92D;" d="M772.59,759.39v-24.14c0-2.94-0.42-5.16-1.27-6.66c-0.85-1.5-2.21-2.25-4.08-2.25
		c-2.58,0-4.44,1.03-5.59,3.09c-1.15,2.06-1.72,5.59-1.72,10.59v19.38h-15.27v-44.26h11.52l1.91,5.47h0.9
		c1.3-2.08,3.11-3.65,5.41-4.69c2.3-1.04,4.95-1.56,7.95-1.56c4.9,0,8.7,1.42,11.43,4.26c2.72,2.84,4.08,6.84,4.08,11.99v28.79
		H772.59z"/>
</g>
<g style="display:none;">
	<path style="display:inline;fill:#1AA92D;" d="M292.43,731.09v3.5l-4.5,0.1v31.1h-3.2l-7.3-5c-2.6,2.07-5.42,3.67-8.45,4.8
		c-3.03,1.13-6.12,1.7-9.25,1.7c-5.87,0-11.03-1.35-15.5-4.05c-4.47-2.7-7.93-6.5-10.4-11.4c-2.47-4.9-3.7-10.58-3.7-17.05
		c0-6.13,1.12-11.93,3.35-17.4c2.23-5.46,5.08-9.83,8.55-13.1c3.4-2.2,7.05-3.88,10.95-5.05c3.9-1.17,7.75-1.75,11.55-1.75
		c5.07,0,9.72,1.08,13.95,3.25c4.23,2.17,7.58,5.18,10.05,9.05l-12.3,10.3c-3.67-6.2-7.83-12.8-12.5-19.8c-4.6,2-8.37,5.7-11.3,11.1
		c-2.93,5.4-4.4,11.54-4.4,18.4c0,8.47,1.92,15.12,5.75,19.95c3.83,4.83,9.08,7.25,15.75,7.25c1.07,0,1.87-0.03,2.4-0.1v-22.2
		l-4.9-0.1v-3.5H292.43z"/>
	<path style="display:inline;fill:#1AA92D;" d="M335.03,725.19c4.07,3.93,6.1,9.53,6.1,16.8c0,3.13-0.55,6.37-1.65,9.7
		c-1.1,3.33-2.72,6.27-4.85,8.8c-2.13,2.07-4.62,3.72-7.45,4.95c-2.83,1.23-5.82,1.85-8.95,1.85c-6.67,0-12.03-1.97-16.1-5.9
		c-4.07-3.93-6.1-9.53-6.1-16.8c0-3.07,0.57-6.27,1.7-9.6c1.13-3.33,2.77-6.27,4.9-8.8c2.13-2.07,4.62-3.73,7.45-5
		c2.83-1.27,5.78-1.9,8.85-1.9C325.59,719.29,330.96,721.26,335.03,725.19z M314.18,753.99c2.5,3.13,6.18,5,11.05,5.6
		c0.47-2,0.83-4.23,1.1-6.7c0.27-2.46,0.4-4.5,0.4-6.1c0-6.4-1.25-11.15-3.75-14.25s-6.15-4.95-10.95-5.55
		c-0.47,2.07-0.85,4.33-1.15,6.8c-0.3,2.47-0.45,4.47-0.45,6C310.43,746.12,311.68,750.86,314.18,753.99z"/>
	<path style="display:inline;fill:#1AA92D;" d="M344.53,762.89l3.7-0.3l-0.5-59.9l-3.8,0.8l-1-2.9l18.5-5.6l1.4,2.4l-0.5,65.2
		l3.7,0.3v2.9h-21.5V762.89z"/>
	<path style="display:inline;fill:#1AA92D;" d="M418.82,758.89l-14.6,7.9c-1.8-1.07-3.12-2.48-3.95-4.25
		c-0.83-1.77-1.32-4.05-1.45-6.85l-9.9,11.6c-3.87,0-7.28-0.88-10.25-2.65c-2.97-1.77-5.28-4.2-6.95-7.3
		c-1.67-3.1-2.5-6.62-2.5-10.55c0-3.4,0.57-7,1.7-10.8c1.13-3.8,2.5-6.77,4.1-8.9c1.27-1.8,3.57-3.55,6.9-5.25
		c3.33-1.7,6.13-2.55,8.4-2.55c2,0,4.73,0.33,8.2,1l-0.2-17.6l-3.8,0.8l-1-2.9l18.5-5.6l1.4,2.4l-0.6,51.8c0,2.4,0.13,4.18,0.4,5.35
		c0.27,1.17,0.73,2.18,1.4,3.05l3-1.4L418.82,758.89z M385.13,748.79c1,2.27,2.32,4,3.95,5.2c1.63,1.2,3.38,1.8,5.25,1.8l4.5-4.5
		l-0.2-20.2c-4.33-2.07-8.5-3.47-12.5-4.2c-1.67,3.8-2.5,8.43-2.5,13.9C383.63,743.86,384.13,746.52,385.13,748.79z"/>
	<path style="display:inline;fill:#1AA92D;" d="M458.37,725.64c3.37,4.23,5.02,9.95,4.95,17.15l-27.6,0.9c0.47,3.93,1.83,6.93,4.1,9
		c2.27,2.07,5.27,3.1,9,3.1c5.2,0,9.43-1.43,12.7-4.3l1.8,1.6c-2.33,4.47-5.48,7.95-9.45,10.45c-3.97,2.5-8.18,3.75-12.65,3.75
		c-6.07,0-10.88-2.02-14.45-6.05c-3.57-4.03-5.35-9.48-5.35-16.35c0-4.07,0.82-8.1,2.45-12.1c1.63-4,3.72-7.33,6.25-10
		c1.73-1,3.97-1.83,6.7-2.5c2.73-0.67,5.3-1,7.7-1C450.39,719.29,455.01,721.41,458.37,725.64z M448.52,739.49
		c-0.07-4.67-0.73-8.37-2-11.1c-1.27-2.73-3.07-4.37-5.4-4.9c-1.67,1.73-3.02,4.15-4.05,7.25c-1.03,3.1-1.55,6.28-1.55,9.55v0.3
		L448.52,739.49z"/>
	<path style="display:inline;fill:#1AA92D;" d="M515.62,762.89v2.9h-21.4v-2.9l3.7-0.3v-21.1c0-2.93-0.82-5.2-2.45-6.8
		c-1.63-1.6-3.88-2.43-6.75-2.5l-3.2,3.3l-0.4,27.1l3.7,0.3v2.9h-21.5v-2.9l3.7-0.3l-0.3-35.8l-3.8,0.9l-1-3l15.8-4.9l3.5,11.2
		l8.3-11.9c6.33,0,11,1.5,14,4.5s4.5,7.63,4.5,13.9v25.1L515.62,762.89z"/>
	<path style="display:inline;fill:#1AA92D;" d="M575.17,762.49c2.63,1.27,4.68,2.93,6.15,5c-1.27,3.8-3.29,7.53-6.05,11.2
		c-2.77,3.67-6.1,6.68-10,9.05c-3.9,2.37-8.08,3.55-12.55,3.55c-4.33,0-7.82-1.08-10.45-3.25c-2.63-2.17-3.95-4.92-3.95-8.25
		c0-2.8,0.7-5.97,2.1-9.5c-2.4-1.13-4.4-3.17-6-6.1l10.1-11.3c-2.53-1.4-4.52-3.28-5.95-5.65c-1.43-2.37-2.15-5.02-2.15-7.95
		c0-2.73,0.57-5.43,1.7-8.1c1.13-2.67,2.57-4.93,4.3-6.8c1.67-1.4,3.92-2.6,6.75-3.6c2.83-1,5.82-1.5,8.95-1.5
		c2.27,0,4.23,0.23,5.9,0.7l8.3-14.1c1.33-0.27,2.73-0.4,4.2-0.4c2.8,0,5.5,0.57,8.1,1.7l-7,13c-2.13-0.87-4.23-1.3-6.3-1.3
		c-0.67,0-1.54,0.07-2.6,0.2l-1.5,2c3,1.33,5.37,3.27,7.1,5.8c1.73,2.54,2.6,5.47,2.6,8.8c0,2.6-0.58,5.18-1.75,7.75
		c-1.17,2.57-2.58,4.88-4.25,6.95c-1.67,1.47-3.92,2.68-6.75,3.65c-2.83,0.97-5.78,1.45-8.85,1.45c-2.93,0-5.63-0.47-8.1-1.4
		l-2.3,2.8c0.4,0.6,1.27,1.13,2.6,1.6c1.33,0.47,2.93,0.73,4.8,0.8l13.3,0.9C569.35,760.46,572.54,761.22,575.17,762.49z
		 M564.12,780.14c1.93-0.43,3.57-0.95,4.9-1.55c1.33-0.6,2.13-1.13,2.4-1.6c-0.4-0.93-1.58-1.85-3.55-2.75
		c-1.97-0.9-4.72-1.45-8.25-1.65l-11.1-0.6c-1.27-0.07-2.8-0.23-4.6-0.5c0.33,2.67,1.78,4.88,4.35,6.65
		c2.57,1.77,5.88,2.65,9.95,2.65C560.22,780.79,562.19,780.57,564.12,780.14z M560.52,729.69c-2.13-2.33-5.13-3.77-9-4.3
		c-1.27,3.67-1.9,7.07-1.9,10.2c0,4,1.07,7.17,3.2,9.5c2.13,2.33,5.17,3.77,9.1,4.3c1.2-3.13,1.8-6.46,1.8-10
		C563.72,735.26,562.65,732.02,560.52,729.69z"/>
	<path style="display:inline;fill:#1AA92D;" d="M602.12,734.49l-0.4,28.1l8.9,0.3v2.9h-26.7v-2.9l3.7-0.3l-0.3-35.8l-3.8,0.9l-1-3
		l15.8-4.9l3.4,10.7c2.2-4.47,4.6-7.93,7.2-10.4c1.47-0.53,3.23-0.8,5.3-0.8c2.8,0,5.43,0.5,7.9,1.5l-3.2,13
		c-1.93-0.4-4.4-0.77-7.4-1.1c-3-0.33-5.47-0.57-7.4-0.7L602.12,734.49z"/>
	<path style="display:inline;fill:#1AA92D;" d="M659.27,725.64c3.37,4.23,5.02,9.95,4.95,17.15l-27.6,0.9c0.47,3.93,1.83,6.93,4.1,9
		c2.27,2.07,5.27,3.1,9,3.1c5.2,0,9.43-1.43,12.7-4.3l1.8,1.6c-2.33,4.47-5.48,7.95-9.45,10.45c-3.97,2.5-8.18,3.75-12.65,3.75
		c-6.07,0-10.88-2.02-14.45-6.05c-3.57-4.03-5.35-9.48-5.35-16.35c0-4.07,0.82-8.1,2.45-12.1c1.63-4,3.71-7.33,6.25-10
		c1.73-1,3.96-1.83,6.7-2.5c2.73-0.67,5.3-1,7.7-1C651.29,719.29,655.9,721.41,659.27,725.64z M649.42,739.49
		c-0.07-4.67-0.73-8.37-2-11.1c-1.27-2.73-3.07-4.37-5.4-4.9c-1.67,1.73-3.02,4.15-4.05,7.25c-1.03,3.1-1.55,6.28-1.55,9.55v0.3
		L649.42,739.49z"/>
	<path style="display:inline;fill:#1AA92D;" d="M704.37,725.64c3.37,4.23,5.02,9.95,4.95,17.15l-27.6,0.9c0.47,3.93,1.83,6.93,4.1,9
		c2.27,2.07,5.27,3.1,9,3.1c5.2,0,9.43-1.43,12.7-4.3l1.8,1.6c-2.33,4.47-5.48,7.95-9.45,10.45c-3.97,2.5-8.18,3.75-12.65,3.75
		c-6.07,0-10.88-2.02-14.45-6.05c-3.57-4.03-5.35-9.48-5.35-16.35c0-4.07,0.82-8.1,2.45-12.1c1.63-4,3.71-7.33,6.25-10
		c1.73-1,3.96-1.83,6.7-2.5c2.73-0.67,5.3-1,7.7-1C696.39,719.29,701,721.41,704.37,725.64z M694.52,739.49
		c-0.07-4.67-0.73-8.37-2-11.1c-1.27-2.73-3.07-4.37-5.4-4.9c-1.67,1.73-3.02,4.15-4.05,7.25c-1.03,3.1-1.55,6.28-1.55,9.55v0.3
		L694.52,739.49z"/>
	<path style="display:inline;fill:#1AA92D;" d="M761.62,762.89v2.9h-21.4v-2.9l3.7-0.3v-21.1c0-2.93-0.82-5.2-2.45-6.8
		c-1.63-1.6-3.88-2.43-6.75-2.5l-3.2,3.3l-0.4,27.1l3.7,0.3v2.9h-21.5v-2.9l3.7-0.3l-0.3-35.8l-3.8,0.9l-1-3l15.8-4.9l3.5,11.2
		l8.3-11.9c6.33,0,11,1.5,14,4.5s4.5,7.63,4.5,13.9v25.1L761.62,762.89z"/>
</g>
<g style="display:none;">
	<path style="display:inline;fill:#1AA92D;" d="M244.7,728.11h18.9c4.07,5.05,6.1,10.37,6.1,15.97c0,6.51-2.38,11.98-7.15,16.41
		c-4.77,4.43-10.64,6.64-17.6,6.64c-9.05,0-16.73-3.43-23.05-10.3c-6.32-6.87-9.47-15.23-9.47-25.1c0-9.9,3.21-18.13,9.64-24.71
		c6.43-6.58,14.46-9.86,24.1-9.86c3.29,0,6.93,0.67,10.94,2v19.82c-3.13-1.46-5.97-2.2-8.54-2.2c-4.66,0-8.46,1.45-11.4,4.35
		c-2.95,2.9-4.42,6.66-4.42,11.28c0,4.72,1.37,8.46,4.1,11.23c2.73,2.77,6.43,4.15,11.08,4.15c2.96,0,4.44-0.86,4.44-2.59
		c0-1.3-0.98-1.95-2.93-1.95h-4.74V728.11z"/>
	<path style="display:inline;fill:#1AA92D;" d="M299.48,715.76c6.9,0,12.82,2.48,17.75,7.45c4.93,4.96,7.4,10.91,7.4,17.85
		c0,7.03-2.5,13.02-7.5,17.97c-5,4.95-11.03,7.42-18.09,7.42c-7.06,0-13.1-2.48-18.12-7.45c-5.01-4.96-7.52-10.95-7.52-17.94
		c0-7.13,2.51-13.13,7.52-17.99C285.94,718.19,292.12,715.76,299.48,715.76z M298.99,733.78c-1.95,0-3.61,0.71-4.98,2.12
		s-2.05,3.15-2.05,5.2c0,2.02,0.69,3.74,2.08,5.18c1.38,1.43,3.04,2.15,4.96,2.15c1.95,0,3.62-0.72,5-2.15
		c1.38-1.43,2.08-3.16,2.08-5.18c0-2.05-0.68-3.78-2.05-5.2S300.98,733.78,298.99,733.78z"/>
	<path style="display:inline;fill:#1AA92D;" d="M350.51,698.82v66.65h-18.26v-66.65H350.51z"/>
	<path style="display:inline;fill:#1AA92D;" d="M391.18,698.82h18.26v40.58c0,7.46-1.95,13.53-5.86,18.21
		c-2.25,2.7-5.1,4.85-8.57,6.45s-7.02,2.39-10.67,2.39c-7.26,0-13.38-2.44-18.36-7.32s-7.47-10.87-7.47-17.97
		c0-6.87,2.47-12.81,7.42-17.82c4.95-5.01,10.81-7.52,17.58-7.52c1.07,0,2.7,0.1,4.88,0.29v20.12c-1.5-1.17-3-1.76-4.49-1.76
		c-1.89,0-3.51,0.69-4.86,2.08c-1.35,1.38-2.03,3.05-2.03,5c0,1.89,0.7,3.51,2.1,4.86c1.4,1.35,3.08,2.03,5.03,2.03
		c4.69,0,7.03-3.24,7.03-9.72V698.82z"/>
	<path style="display:inline;fill:#1AA92D;" d="M466.91,744.08h-27.69c-0.42-1.4-0.63-2.69-0.63-3.86c0-1.63,0.29-3.22,0.88-4.79
		h9.28c-0.65-3.61-2.69-5.42-6.1-5.42c-2.28,0-4.13,0.97-5.57,2.91c-1.43,1.94-2.15,4.42-2.15,7.45c0,3.16,0.69,5.71,2.08,7.67
		c1.38,1.95,3.2,2.93,5.44,2.93c1.82,0,3.58-0.91,5.27-2.73l10.4,12.5c-4.85,3.81-10.24,5.71-16.16,5.71
		c-7.23,0-13.3-2.42-18.21-7.28c-4.92-4.85-7.37-10.86-7.37-18.02c0-7.13,2.48-13.15,7.45-18.07c4.96-4.92,11.06-7.37,18.29-7.37
		c7.06,0,13,2.4,17.8,7.2c4.8,4.8,7.2,10.72,7.2,17.75C467.11,741.38,467.04,742.52,466.91,744.08z"/>
	<path style="display:inline;fill:#1AA92D;" d="M517.89,765.47h-18.26v-27.49c0-2.8-1.16-4.2-3.47-4.2c-2.28,0-3.42,1.4-3.42,4.2
		v27.49h-18.26v-27.15c0-6.35,2.1-11.69,6.3-16.04s9.34-6.52,15.43-6.52c6.97,0,12.55,2.52,16.75,7.57
		c3.29,3.94,4.93,9.42,4.93,16.46V765.47z"/>
	<path style="display:inline;fill:#1AA92D;" d="M579.51,745.4v16.75c-2.64,0.98-5.16,1.46-7.57,1.46c-5.89,0-10.88-2.23-14.97-6.69
		c-4.09-4.46-6.13-9.91-6.13-16.36c0-6.97,2.46-12.84,7.37-17.63c4.92-4.79,10.95-7.18,18.12-7.18c3.81,0,7.45,0.77,10.94,2.29
		c3.48,1.53,6.22,3.58,8.2,6.15c3.32,4.26,4.98,10.45,4.98,18.55v16.02c0,8.69-2.47,15.75-7.4,21.17s-11.35,8.13-19.26,8.13
		c-2.41,0-5.45-0.6-9.13-1.81v-16.6c2.38,1.3,4.79,1.95,7.23,1.95c3.29,0,5.83-1.08,7.62-3.25c1.79-2.17,2.69-5.26,2.69-9.3v-18.31
		c0-5.11-2.07-7.67-6.2-7.67c-1.76,0-3.3,0.68-4.61,2.03c-1.32,1.35-1.98,2.91-1.98,4.66c0,1.86,0.63,3.4,1.88,4.64
		c1.25,1.24,2.81,1.86,4.66,1.86C577.18,746.28,578.37,745.98,579.51,745.4z"/>
	<path style="display:inline;fill:#1AA92D;" d="M637.91,716.3v19.53c-1.27-0.72-2.43-1.07-3.47-1.07c-3.32,0-4.98,2.54-4.98,7.62
		v23.1H611.2v-26.61c0-7.03,1.92-12.64,5.76-16.82c3.84-4.18,8.97-6.27,15.38-6.27C633.77,715.76,635.63,715.94,637.91,716.3z"/>
	<path style="display:inline;fill:#1AA92D;" d="M691.13,744.08h-27.69c-0.42-1.4-0.63-2.69-0.63-3.86c0-1.63,0.29-3.22,0.88-4.79
		h9.28c-0.65-3.61-2.69-5.42-6.1-5.42c-2.28,0-4.13,0.97-5.57,2.91c-1.43,1.94-2.15,4.42-2.15,7.45c0,3.16,0.69,5.71,2.08,7.67
		c1.38,1.95,3.2,2.93,5.44,2.93c1.82,0,3.58-0.91,5.27-2.73l10.4,12.5c-4.85,3.81-10.24,5.71-16.16,5.71
		c-7.23,0-13.3-2.42-18.21-7.28c-4.92-4.85-7.37-10.86-7.37-18.02c0-7.13,2.48-13.15,7.45-18.07c4.96-4.92,11.06-7.37,18.29-7.37
		c7.06,0,13,2.4,17.8,7.2c4.8,4.8,7.2,10.72,7.2,17.75C691.33,741.38,691.26,742.52,691.13,744.08z"/>
	<path style="display:inline;fill:#1AA92D;" d="M746.55,744.08h-27.69c-0.42-1.4-0.63-2.69-0.63-3.86c0-1.63,0.29-3.22,0.88-4.79
		h9.28c-0.65-3.61-2.69-5.42-6.1-5.42c-2.28,0-4.13,0.97-5.57,2.91c-1.43,1.94-2.15,4.42-2.15,7.45c0,3.16,0.69,5.71,2.08,7.67
		c1.38,1.95,3.2,2.93,5.44,2.93c1.82,0,3.58-0.91,5.27-2.73l10.4,12.5c-4.85,3.81-10.24,5.71-16.16,5.71
		c-7.23,0-13.3-2.42-18.21-7.28c-4.92-4.85-7.37-10.86-7.37-18.02c0-7.13,2.48-13.15,7.45-18.07c4.96-4.92,11.06-7.37,18.29-7.37
		c7.06,0,13,2.4,17.8,7.2c4.8,4.8,7.2,10.72,7.2,17.75C746.75,741.38,746.68,742.52,746.55,744.08z"/>
	<path style="display:inline;fill:#1AA92D;" d="M797.53,765.47h-18.26v-27.49c0-2.8-1.16-4.2-3.47-4.2c-2.28,0-3.42,1.4-3.42,4.2
		v27.49h-18.26v-27.15c0-6.35,2.1-11.69,6.3-16.04s9.34-6.52,15.43-6.52c6.97,0,12.55,2.52,16.75,7.57
		c3.29,3.94,4.93,9.42,4.93,16.46V765.47z"/>
</g>
<g style="display:none;">
	<path style="display:inline;fill:#1AA92D;" d="M214.22,778.16c-10.35,0-18.56-3.34-24.63-10.02c-6.07-6.68-9.1-15.69-9.1-27.04
		c0-11.6,3.16-20.81,9.48-27.63c6.32-6.82,14.85-10.23,25.59-10.23c8.67,0,15.79,2.16,21.38,6.47c5.59,4.32,8.84,10.14,9.78,17.48
		h-14.88c-0.39-3.08-2.14-5.78-5.24-8.11c-3.1-2.33-6.51-3.49-10.23-3.49c-6.45,0-11.49,2.23-15.15,6.69
		c-3.65,4.46-5.48,10.64-5.48,18.56c0,8.06,1.75,14.19,5.26,18.4c3.51,4.21,8.63,6.31,15.36,6.31h-0.05
		c5.73,0,10.21-2.18,13.43-6.55c1.79-2.51,3.1-5.42,3.92-8.75v-0.16h-16.7v-12.25h29.76v38.35h-9.94l-1.45-9.18l-0.86,1.18
		c-4.98,6.66-11.75,9.99-20.3,9.99H214.22z"/>
	<path style="display:inline;fill:#1AA92D;" d="M283.4,777.57c-8.2,0-14.73-2.46-19.58-7.39c-4.85-4.92-7.28-11.57-7.28-19.95
		c0-8.59,2.43-15.41,7.28-20.44c4.85-5.03,11.38-7.55,19.58-7.55c8.31,0,14.88,2.52,19.71,7.55c4.83,5.03,7.25,11.84,7.25,20.44
		c0,8.38-2.42,15.03-7.25,19.95C298.28,775.1,291.7,777.57,283.4,777.57z M283.4,765.96c4.15,0,7.3-1.35,9.45-4.06
		c2.15-2.7,3.22-6.65,3.22-11.84c0-5.3-1.07-9.33-3.22-12.08c-2.15-2.76-5.3-4.14-9.45-4.14c-4.12,0-7.25,1.38-9.4,4.14
		c-2.15,2.76-3.22,6.79-3.22,12.08c0,5.19,1.07,9.14,3.22,11.84C276.15,764.61,279.28,765.96,283.4,765.96z"/>
	<path style="display:inline;fill:#1AA92D;" d="M320.46,776.22v-71.06h13.86v71.06H320.46z"/>
	<path style="display:inline;fill:#1AA92D;" d="M366.92,777.57c-6.73,0-12.15-2.6-16.25-7.82c-4.1-5.21-6.15-12.09-6.15-20.65
		c0-8.06,2.05-14.55,6.15-19.47c4.1-4.92,9.48-7.39,16.14-7.39c5.94,0,10.74,2.51,14.39,7.52l0.59,0.81v-25.41h13.86v71.06h-13.43
		v-6.71l-0.27,0.32C378.13,774.99,373.11,777.57,366.92,777.57z M370.62,734.22c-3.72,0-6.63,1.42-8.73,4.27
		c-2.09,2.85-3.14,6.81-3.14,11.9c0,4.94,1.05,8.81,3.14,11.6s4.99,4.19,8.67,4.19c3.72,0,6.63-1.47,8.73-4.4
		c2.09-2.94,3.14-7.02,3.14-12.25c0-4.8-1.05-8.55-3.14-11.25C377.2,735.57,374.31,734.22,370.62,734.22z"/>
	<path style="display:inline;fill:#1AA92D;" d="M428.9,777.57c-8.02,0-14.2-2.46-18.53-7.39c-4.33-4.92-6.5-11.95-6.5-21.08
		c0-8.41,2.21-14.99,6.63-19.74c4.42-4.74,10.55-7.12,18.4-7.12c8.02,0,14.2,2.43,18.53,7.28c4.33,4.85,6.5,11.75,6.5,20.71v0.7
		c0,0.79-0.09,1.59-0.27,2.42h-35.83c0.32,4.15,1.25,7.27,2.79,9.35c1.93,2.58,5.16,3.87,9.67,3.87c2.08,0,4.01-0.6,5.8-1.8
		c1.79-1.2,2.86-2.62,3.22-4.27h14.13c-1.22,5.34-3.99,9.52-8.33,12.54C440.79,776.05,435.38,777.57,428.9,777.57z M439.48,744.53
		c-0.32-3.19-1.16-5.66-2.52-7.41c-1.79-2.36-4.55-3.54-8.27-3.54c-3.58,0-6.3,1.38-8.16,4.14c-1.18,1.72-2.02,3.99-2.52,6.82
		H439.48z"/>
	<path style="display:inline;fill:#1AA92D;" d="M463.11,776.22v-52.58h13.16v7.79c0.57-0.93,1.18-1.83,1.83-2.69
		c3.4-4.33,8.36-6.5,14.88-6.5c5.55,0,9.89,1.64,13.02,4.92c3.13,3.28,4.7,7.83,4.7,13.67v35.4h-13.86v-32.87
		c0-3.26-0.7-5.67-2.09-7.22c-1.4-1.56-3.54-2.34-6.45-2.34c-3.65,0-6.45,1.09-8.41,3.28c-1.95,2.18-2.93,5.34-2.93,9.45v29.7
		H463.11z"/>
	<path style="display:inline;fill:#1AA92D;" d="M574.62,787.13c3.87,0,6.66-0.94,8.38-2.82c1.72-1.88,2.58-4.99,2.58-9.32v-6.5
		l-1.13,1.72c-3.04,4.19-7.45,6.28-13.21,6.28c-6.8,0-12.31-2.45-16.52-7.36c-4.21-4.91-6.31-11.39-6.31-19.44
		c0-8.24,2.04-14.87,6.12-19.9c4.08-5.03,9.47-7.55,16.17-7.55c5.87,0,10.44,2.13,13.7,6.39c0.61,0.82,1.18,1.72,1.72,2.69v-7.68
		h13.05v49.79c0,8.31-2.06,14.44-6.18,18.4c-4.12,3.96-10.53,5.93-19.23,5.93c-7.16,0-12.85-1.4-17.05-4.19
		c-4.21-2.79-6.46-6.66-6.74-11.6H565c0.14,1.83,0.98,3.14,2.5,3.95C569.02,786.72,571.4,787.13,574.62,787.13z M574.13,734.22
		c-3.58,0-6.39,1.38-8.43,4.14c-2.04,2.76-3.06,6.59-3.06,11.49c0,4.8,1.02,8.54,3.06,11.23s4.85,4.03,8.43,4.03
		c3.62,0,6.45-1.37,8.51-4.11c2.06-2.74,3.09-6.53,3.09-11.36s-1.03-8.61-3.09-11.33C580.59,735.58,577.75,734.22,574.13,734.22z"/>
	<path style="display:inline;fill:#1AA92D;" d="M611.25,776.22v-52.58h13.21v9.4c0.46-1,1-1.99,1.61-2.95
		c3.26-5.23,7.47-7.84,12.62-7.84l3.17,0.05v14.13c-1.25-0.11-2.65-0.16-4.19-0.16c-4.23,0-7.38,1.05-9.45,3.14
		c-2.08,2.09-3.12,5.27-3.12,9.53v27.29H611.25z"/>
	<path style="display:inline;fill:#1AA92D;" d="M670.71,777.57c-8.02,0-14.2-2.46-18.53-7.39c-4.33-4.92-6.5-11.95-6.5-21.08
		c0-8.41,2.21-14.99,6.63-19.74c4.42-4.74,10.55-7.12,18.4-7.12c8.02,0,14.2,2.43,18.53,7.28c4.33,4.85,6.5,11.75,6.5,20.71v0.7
		c0,0.79-0.09,1.59-0.27,2.42h-35.83c0.32,4.15,1.25,7.27,2.79,9.35c1.93,2.58,5.16,3.87,9.67,3.87c2.08,0,4.01-0.6,5.8-1.8
		c1.79-1.2,2.86-2.62,3.22-4.27h14.13c-1.22,5.34-3.99,9.52-8.33,12.54C682.6,776.05,677.19,777.57,670.71,777.57z M681.29,744.53
		c-0.32-3.19-1.16-5.66-2.52-7.41c-1.79-2.36-4.55-3.54-8.27-3.54c-3.58,0-6.3,1.38-8.16,4.14c-1.18,1.72-2.02,3.99-2.52,6.82
		H681.29z"/>
	<path style="display:inline;fill:#1AA92D;" d="M725.76,777.57c-8.02,0-14.2-2.46-18.53-7.39c-4.33-4.92-6.5-11.95-6.5-21.08
		c0-8.41,2.21-14.99,6.63-19.74c4.42-4.74,10.55-7.12,18.4-7.12c8.02,0,14.2,2.43,18.53,7.28c4.33,4.85,6.5,11.75,6.5,20.71v0.7
		c0,0.79-0.09,1.59-0.27,2.42H714.7c0.32,4.15,1.25,7.27,2.79,9.35c1.93,2.58,5.16,3.87,9.67,3.87c2.08,0,4.01-0.6,5.8-1.8
		c1.79-1.2,2.86-2.62,3.22-4.27h14.13c-1.22,5.34-3.99,9.52-8.33,12.54C737.65,776.05,732.24,777.57,725.76,777.57z M736.34,744.53
		c-0.32-3.19-1.16-5.66-2.52-7.41c-1.79-2.36-4.55-3.54-8.27-3.54c-3.58,0-6.3,1.38-8.16,4.14c-1.18,1.72-2.02,3.99-2.52,6.82
		H736.34z"/>
	<path style="display:inline;fill:#1AA92D;" d="M759.98,776.22v-52.58h13.16v7.79c0.57-0.93,1.18-1.83,1.83-2.69
		c3.4-4.33,8.36-6.5,14.88-6.5c5.55,0,9.89,1.64,13.03,4.92c3.13,3.28,4.7,7.83,4.7,13.67v35.4h-13.86v-32.87
		c0-3.26-0.7-5.67-2.09-7.22c-1.4-1.56-3.54-2.34-6.45-2.34c-3.65,0-6.45,1.09-8.41,3.28c-1.95,2.18-2.93,5.34-2.93,9.45v29.7
		H759.98z"/>
</g>
<path style="fill:#1AA92D;" d="M565.63,667.98c0,0,1.03-10.67-14.24-12.35c0.18,5.06,2.72,9.82,6.75,12.32
	c2.53,1.57,4.98,1.84,6.36,1.87c-0.3-1.07-0.84-2.47-1.81-3.96c-2.31-3.54-5.56-5.2-6.88-5.79
	C555.81,660.07,560.62,659.7,565.63,667.98z"/>
<g style="display:none;">
	<path style="display:inline;fill:#24C24B;" d="M630.59,385.86c-11.81-8.03-26.06-12.73-41.41-12.73c-4.27,0-8.45,0.38-12.52,1.08
		c0,0.32,0.02,0.65,0.02,0.97c0,36.45-26.45,66.69-61.2,72.64c-1.57,3.25-5.21,11.95-3.04,22.64c3.71,18.32,21.13,25.91,22.79,26.6
		C586.54,484.05,625.43,439.88,630.59,385.86z"/>
	<path style="display:inline;fill:#24C24B;" d="M400.18,299.45c-5.66,7.9-13.28,20.45-18.37,37.33c0,0-5.4,18.25-5.4,36.81
		c0,70.36,57.03,127.39,127.39,127.39c10.85,0,21.37-1.36,31.43-3.91c-12.05-12.94-19.49-30.22-19.74-49.24
		c-4.07,0.7-8.25,1.08-12.52,1.08c-40.72,0-73.72-33.01-73.72-73.72c0-40.72,33.01-73.72,73.72-73.72c0.28,0,0.56,0.02,0.84,0.02
		c0.22-0.09,0.44-0.18,0.65-0.27C469.69,300.62,434.94,300.04,400.18,299.45z"/>
	<path style="display:inline;fill:#24C24B;" d="M529.82,249.51c-17.2,0-34.4,0-51.6,0c-10.39,1.92-28.02,6.57-46.41,18.97
		c-17.16,11.58-27.71,25.01-33.45,33.59c43.82-0.29,87.64-0.58,131.46-0.87v-0.28C529.82,283.79,529.82,266.65,529.82,249.51z"/>
	<path style="display:inline;fill:#24C24B;" d="M563.91,264.2c1.4,0,2.7-0.4,3.81-1.08c-3.59-2.09-7.29-4-11.09-5.73
		C556.89,261.19,560.04,264.2,563.91,264.2z"/>
	<path style="display:inline;fill:#24C24B;" d="M554.15,292.4c0-4.92,3.9-8.9,8.71-8.9c4.06,0,7.46,2.84,8.43,6.68v-24.93
		c-1.17-0.73-2.37-1.44-3.57-2.14c-1.11,0.68-2.41,1.08-3.81,1.08c-3.87,0-7.03-3.01-7.28-6.81c-7.23-3.3-14.81-5.96-22.69-7.87
		h-1.16c0.39,0.09,0.77,0.19,1.16,0.28c-1.63-0.09-3.27-0.19-4.9-0.28c-0.31,17.23-0.62,34.46-0.92,51.69
		c10.75-0.09,21.49-0.19,32.24-0.28C556.76,299.82,554.15,296.43,554.15,292.4z"/>
	<path style="display:inline;fill:#24C24B;" d="M571.29,294.62v-4.44c-1.19-4.45-4.54-7.77-8.41-8.31
		c-6.21-0.86-12.65,5.58-11.49,11.49c0.73,3.7,4.35,6.77,8.96,7.56h5.02C568.27,300.03,570.53,297.64,571.29,294.62z"/>
	<g style="display:inline;">
		<g>
			<path style="fill:#24C24B;" d="M563.91,249.58v-0.06c-31.08-0.28-38.61,0-38.62,0.36c-0.01,0.44,10.73-2.1,19.83,3.84
				c0,0,9.28,6.06,13.66,6.31c0.44,0.02,1.52,0.08,2.11-0.58c0.1-0.11,0.19-0.26,0.72-1.61c0.11-0.27,0.31-0.79,0.4-1.04
				C562.36,255.81,563.1,253.16,563.91,249.58z"/>
		</g>
	</g>
	<g style="display:inline;">
		<g>
			<path style="fill:#24C24B;" d="M571.19,256.15c0.02,0.24,0.04,0.49,0.04,0.73c0,2.64-1.4,4.95-3.5,6.23
				c1.2,0.7,2.39,1.4,3.57,2.14v-9.1L571.19,256.15z"/>
		</g>
	</g>
	<g style="display:inline;">
		<g>
			<path style="fill:#24C24B;" d="M563.91,249.51c-0.64,2.57-1.27,5.14-1.91,7.72c3.09-0.36,6.19-0.72,9.28-1.08
				C570.91,252.42,567.75,249.51,563.91,249.51z"/>
		</g>
	</g>
	<g style="display:inline;">
		<g>
			<path style="fill:#24C24B;" d="M571.22,256.89c0-0.04,0-0.18-0.01-0.37c-0.01-0.12-0.02-0.24-0.03-0.36
				c-1.5-1.34-3.01-2.68-4.51-4.03c-0.92-0.85-1.84-1.7-2.76-2.55c-2.31-0.11-5.79-0.1-9.94,0.62c-4.6,0.8-8.25,1.44-8.86,3.51
				c-0.54,1.84,1.68,3.96,6.13,8.22c3.62,3.46,5.42,5.19,8.04,6.27c4.73,1.95,9.34,1.22,12.01,0.51
				C571.25,262.02,571.22,257.16,571.22,256.89z"/>
		</g>
	</g>
	<g style="display:inline;">
	</g>
	<path style="display:inline;fill:#1AA92D;" d="M626.62,366.39c0,0-54.47-76.69-150.79,11.93c29.65,31.99,71.02,46.63,108.06,36.77
		c23.27-6.19,38.72-20.43,46.71-29.23c-7.78-5.03-18.74-10.76-32.66-14.18c-33.15-8.14-61.01,2.19-71.86,6.92
		C526.07,378.61,551.35,344.81,626.62,366.39z"/>
	<g style="display:inline;">
		<g>
			<g>
				<path style="fill:#24C24B;" d="M595.72,502.58l3.91-0.01L595.72,502.58c-1.72,1.21-3.48,2.38-5.27,3.5l40.14-0.04
					c0-0.03,0-0.07,0-0.1c0-11.43-1.69-22.5-4.84-32.97C617.61,484.34,607.45,494.36,595.72,502.58z"/>
			</g>
		</g>
		<g>
			<g>
				<path style="fill:#24C24B;" d="M428.25,506.38c0-0.05,0-0.09,0-0.14l-51.85,0.05c0.17,57.23,42.64,105.05,99.39,116.99
					l0.2-53.14C448.03,560.07,428.25,535.33,428.25,506.38z"/>
			</g>
		</g>
		<g>
			<g>
				<path style="fill:#24C24B;" d="M503.86,574.97c-6.35,0-11.42-0.73-14.39-1.25c-6-1.06-11.06-2.65-14.99-4.15
					c-0.13,17.78-0.26,35.56-0.4,53.34c4.31,0.97,9.47,1.9,15.34,2.52c3.25,0.34,8.13,0.73,14.08,0.73c5.74,0,11.38-0.37,16.92-1.06
					l-0.1-51.78C515.01,574.38,509.51,574.97,503.86,574.97z"/>
			</g>
		</g>
		<g>
			<g>
				<path style="fill:#24C24B;" d="M630.59,505.16c-12.91,0-25.81,0.01-38.72,0.01c-2.16,1.41-4.49,2.82-6.97,4.23
					c-1.96,1.11-3.88,2.13-5.74,3.06c-0.85,6.26-4.05,23.73-18.61,39.29c-16.02,17.12-35.43,20.87-41.41,21.8
					c0.13,17.22,0.27,34.44,0.4,51.66c9.14-0.88,48.4-5.7,79.26-39.72C628.62,552.6,630.42,514.67,630.59,505.16z"/>
			</g>
		</g>
	</g>
</g>
</svg>
